<?xml version="1.0" encoding="UTF-8" standalone="no"?>
<svg
   xmlns:dc="http://purl.org/dc/elements/1.1/"
   xmlns:cc="http://creativecommons.org/ns#"
   xmlns:rdf="http://www.w3.org/1999/02/22-rdf-syntax-ns#"
   xmlns:svg="http://www.w3.org/2000/svg"
   xmlns="http://www.w3.org/2000/svg"
   xmlns:sodipodi="http://sodipodi.sourceforge.net/DTD/sodipodi-0.dtd"
   xmlns:inkscape="http://www.inkscape.org/namespaces/inkscape"
   viewBox="0 0 50 50"
   version="1.1"
   id="svg4"
   sodipodi:docname="Enter Key-595b40b85ba036ed117dd101.svg"
   inkscape:version="0.92.5 (2060ec1f9f, 2020-04-08)">
  <metadata
     id="metadata10">
    <rdf:RDF>
      <cc:Work
         rdf:about="">
        <dc:format>image/svg+xml</dc:format>
        <dc:type
           rdf:resource="http://purl.org/dc/dcmitype/StillImage" />
      </cc:Work>
    </rdf:RDF>
  </metadata>
  <defs
     id="defs8" />
  <sodipodi:namedview
     pagecolor="#ffffff"
     bordercolor="#666666"
     borderopacity="1"
     objecttolerance="10"
     gridtolerance="10"
     guidetolerance="10"
     inkscape:pageopacity="0"
     inkscape:pageshadow="2"
     inkscape:window-width="1876"
     inkscape:window-height="1012"
     id="namedview6"
     showgrid="false"
     inkscape:zoom="4.72"
     inkscape:cx="-18.855932"
     inkscape:cy="25"
     inkscape:window-x="44"
     inkscape:window-y="32"
     inkscape:window-maximized="1"
     inkscape:current-layer="svg4" />
  <path
     style="line-height:normal;text-indent:0;text-align:start;text-decoration-line:none;text-decoration-style:solid;text-decoration-color:#000;text-transform:none;block-progression:tb;isolation:auto;mix-blend-mode:normal"
     d="M 28.957031 4 C 24.022446 4 20 8.0224458 20 12.957031 L 20 14 C 20 14.264591 19.894727 14.519336 19.707031 14.707031 C 19.519336 14.894727 19.264591 15 19 15 L 10.886719 15 C 8.5299002 15 6.2697706 15.937261 4.6035156 17.603516 C 2.9372606 19.269771 2 21.5299 2 23.886719 L 2 31.400391 C 2 31.710032 2.0186192 32.015079 2.0507812 32.316406 L 2.0507812 38.400391 C 2.0507812 43.110908 5.8890922 46.949219 10.599609 46.949219 L 39.400391 46.949219 C 44.110908 46.949219 47.949219 43.110908 47.949219 38.400391 L 47.949219 32.316406 C 47.981381 32.015079 48 31.710032 48 31.400391 L 48 13 A 1.0001 1.0001 0 0 0 48 12.982422 C 47.951893 10.314927 47.094504 8.0315875 45.509766 6.4375 C 43.925849 4.8442397 41.655502 3.9911248 39 4 L 28.957031 4 z M 28.957031 6 L 39 6 A 1.0001 1.0001 0 0 0 39.003906 6 C 41.239626 5.99178 42.922035 6.6709938 44.091797 7.8476562 C 45.261564 9.0243189 45.959107 10.750075 46 13.017578 L 46 31.400391 C 46 35.056846 43.056846 38 39.400391 38 L 10.599609 38 C 6.9431546 38 4 35.056846 4 31.400391 L 4 23.886719 C 4 22.059537 4.7258331 20.309323 6.0175781 19.017578 C 7.3093231 17.725833 9.0595368 17 10.886719 17 L 19 17 C 19.795409 17 20.558789 16.683398 21.121094 16.121094 C 21.683398 15.558789 22 14.795409 22 14 L 22 12.957031 C 22 9.1036171 25.103617 6 28.957031 6 z M 33.984375 12.986328 A 1.0001 1.0001 0 0 0 33 14 L 33 22 C 33 24.773666 30.773666 27 28 27 L 17 27 L 17 23 L 12 28 L 17 33 L 17 29 L 28 29 C 31.854334 29 35 25.854334 35 22 L 35 14 A 1.0001 1.0001 0 0 0 33.984375 12.986328 z M 3.9492188 36.841797 C 5.5283426 38.767201 7.9242408 40 10.599609 40 L 39.400391 40 C 42.075759 40 44.471657 38.767201 46.050781 36.841797 L 46.050781 38.400391 C 46.050781 42.083873 43.083873 45.050781 39.400391 45.050781 L 10.599609 45.050781 C 6.9161274 45.050781 3.9492187 42.083873 3.9492188 38.400391 L 3.9492188 36.841797 z"
     font-weight="400"
     font-family="sans-serif"
     white-space="normal"
     overflow="visible"
     id="path2" />
  <path
     style="fill:#ffffff;stroke-width:0.21186441;fill-opacity:1"
     d="M 8.8771186,37.630712 C 6.9887271,37.02604 5.6481974,35.892078 4.7152595,34.110169 4.2282035,33.179894 4.2161017,33.023229 4.2161017,27.648305 c 0,-5.179743 0.027023,-5.566918 0.4528238,-6.487798 0.6499577,-1.405665 1.8397391,-2.626414 3.2207898,-3.304621 1.1944129,-0.586553 1.2211381,-0.589366 6.6018097,-0.694869 4.803503,-0.09419 5.475707,-0.150227 6.062386,-0.505411 1.051598,-0.636654 1.412231,-1.472634 1.577409,-3.656585 0.230706,-3.0503341 1.474259,-5.0307108 3.912341,-6.2304608 1.040201,-0.5118698 1.139564,-0.5193893 7.701343,-0.5828206 5.802882,-0.056095 6.79403,-0.018185 7.800388,0.2983529 1.50311,0.4727865 3.026263,1.8381768 3.690667,3.3084009 l 0.505466,1.1185236 0.06023,10.830691 c 0.05874,10.563675 0.04925,10.860034 -0.385085,12.020902 -0.527296,1.409326 -1.843351,2.817405 -3.317338,3.549301 l -1.018823,0.505886 -15.677966,0.04214 C 13.146799,37.892873 9.5395913,37.842837 8.8771186,37.630712 Z M 23.556265,28.983718 c 6.360896,-0.06278 6.528743,-0.07545 7.460684,-0.563078 1.298371,-0.679358 2.674678,-2.039259 3.354701,-3.314708 0.561867,-1.053837 0.565136,-1.086549 0.631303,-6.3179 0.04846,-3.830905 -0.0017,-5.340804 -0.184839,-5.561441 -0.309735,-0.373207 -1.383773,-0.398467 -1.61705,-0.03803 -0.09427,0.145657 -0.219072,2.513122 -0.277335,5.261034 l -0.105932,4.996203 -0.641195,1.036332 c -0.396634,0.641062 -1.03653,1.280891 -1.677702,1.677525 l -1.036508,0.641194 -6.214247,0.06473 -6.214247,0.06473 v -2.076366 -2.076365 l -2.593141,2.593141 -2.593141,2.593142 2.540175,2.547688 2.540175,2.547687 0.0605,-2.005649 0.0605,-2.005648 z"
     id="path3717"
     inkscape:connector-curvature="0" />
  <path
     style="fill:#ffffff;stroke-width:0.21186441;fill-opacity:1"
     d="M 8.2830189,44.497736 C 5.8106331,43.531696 4.3232683,41.476957 4.1507787,38.789202 l -0.1026452,-1.59943 0.8154742,0.715996 c 0.4485108,0.393798 1.4396934,1.011798 2.2026281,1.373334 l 1.387154,0.657339 H 24.978814 41.504237 l 1.196418,-0.48376 c 0.658031,-0.266068 1.635256,-0.870039 2.17161,-1.342158 l 0.975193,-0.858399 v 1.361285 c 0,2.566374 -1.691606,4.947094 -4.17546,5.876422 C 40.570269,44.90204 40.049883,44.914946 24.9179,44.905344 10.157664,44.895978 9.2450051,44.873615 8.2830189,44.497736 Z"
     id="path4528"
     inkscape:connector-curvature="0" />
</svg>
